<svg xmlns="http://www.w3.org/2000/svg">

  <symbol id="bird" width="22" height="16" viewBox="0 0 22 16" fill="none">
    <path d="M21.8053 1.30662L20.759 0.22188C20.4736 -0.0739599 19.9029 -0.0739599 19.6176 0.22188L8.29884 11.9569L2.40167 5.84283C2.11633 5.54699 1.54563 5.54699 1.26028 5.84283L0.21401 6.92758C-0.0713367 7.22342 -0.0713367 7.8151 0.21401 8.11094L7.63303 15.8028C7.82326 16 8.01349 16 8.20373 16C8.39396 16 8.58419 15.9014 8.77442 15.8028L21.615 2.48999C22.0906 2.19415 22.0906 1.70108 21.8053 1.30662Z" fill="currentColor"/>
  </symbol>

  <symbol id="circle" width="16" height="16" viewBox="0 0 16 16" fill="none">
    <path fill-rule="evenodd" clip-rule="evenodd" d="M8.0001 0C12.4181 0 16 3.58373 16 7.99973C16 12.4189 12.4181 16 8.0001 16C3.58178 16 0 12.4189 0 7.99973C0 3.58373 3.58178 0 8.0001 0Z" fill="currentColor"/>
  </symbol>

</svg>
